<svg width="10" height="10" viewBox="0 0 10 10" fill="none" xmlns="http://www.w3.org/2000/svg">
<path d="M7.28571 7.39044C6.82203 7.60634 6.31231 7.71429 5.75656 7.71429C4.91783 7.71429 4.24787 7.45486 3.74668 6.93601C3.24889 6.41368 3 5.72073 3 4.85714C3 3.99356 3.2506 3.30234 3.75179 2.78349C4.25639 2.26116 4.91783 2 5.73611 2C6.27139 2 6.78111 2.09576 7.26526 2.28728L7.05557 2.96109C6.57143 2.79046 6.13502 2.70514 5.74633 2.70514C5.1599 2.70514 4.69451 2.89841 4.35015 3.28493C4.00921 3.67145 3.83873 4.19553 3.83873 4.85714C3.83873 5.46305 4.01602 5.97319 4.37061 6.38757C4.7252 6.79847 5.18718 7.00392 5.75656 7.00392C6.20661 7.00392 6.6703 6.91512 7.14763 6.73753L7.28571 7.39044Z" fill="#CFCFCF"/>
<circle cx="5" cy="5" r="4.6" stroke="#CFCFCF" stroke-width="0.8"/>
</svg>
