<svg width="25" height="25" viewBox="0 0 25 25" fill="none" xmlns="http://www.w3.org/2000/svg">
<rect width="25" height="25" rx="12.5" fill="#217BEE"/>
<path d="M13.9713 5.72913C13.0272 5.72913 12.1217 6.10418 11.4541 6.77179C10.7865 7.4394 10.4115 8.34487 10.4115 9.28901V11.271H8.50644C8.41079 11.271 8.33325 11.3485 8.33325 11.4442V14.0612C8.33325 14.1568 8.41079 14.2344 8.50644 14.2344H10.4115V19.603C10.4115 19.6987 10.489 19.7762 10.5846 19.7762H13.2016C13.2973 19.7762 13.3748 19.6987 13.3748 19.603V14.2344H15.2967C15.3762 14.2344 15.4454 14.1803 15.4647 14.1032L16.119 11.4862C16.1463 11.3769 16.0636 11.271 15.951 11.271H13.3748V9.28901C13.3748 9.1308 13.4377 8.97907 13.5495 8.86721C13.6614 8.75534 13.8131 8.69249 13.9713 8.69249H15.9726C16.0682 8.69249 16.1458 8.61495 16.1458 8.5193V5.90231C16.1458 5.80666 16.0682 5.72913 15.9726 5.72913H13.9713Z" fill="white"/>
</svg>
