<svg width="9" height="16" viewBox="0 0 9 16" fill="none" xmlns="http://www.w3.org/2000/svg">
<path d="M6.58777 0C5.5404 0 4.53593 0.416065 3.79533 1.15666C3.05473 1.89726 2.63867 2.90173 2.63867 3.9491V6.14779H0.52537C0.419266 6.14779 0.333252 6.2338 0.333252 6.33991V9.24303C0.333252 9.34913 0.419266 9.43514 0.52537 9.43514H2.63867V15.3908C2.63867 15.4969 2.72468 15.5829 2.83079 15.5829H5.73391C5.84001 15.5829 5.92603 15.4969 5.92603 15.3908V9.43514H8.05804C8.1462 9.43514 8.22305 9.37515 8.24443 9.28962L8.97021 6.3865C9.00052 6.26525 8.90881 6.14779 8.78382 6.14779H5.92603V3.9491C5.92603 3.77359 5.99574 3.60528 6.11984 3.48118C6.24395 3.35708 6.41226 3.28736 6.58777 3.28736H8.8078C8.9139 3.28736 8.99992 3.20134 8.99992 3.09524V0.192118C8.99992 0.0860144 8.9139 0 8.8078 0H6.58777Z" fill="#217BEE"/>
</svg>
