<svg width="55" height="55" viewBox="0 0 55 55" fill="none" xmlns="http://www.w3.org/2000/svg">
<path d="M46.8762 46.6964L38.5321 32.9714C40.7572 32.4583 42.5179 31.3476 43.8167 29.6369C45.1143 27.9274 45.7643 25.4905 45.7643 22.325V8.21548H40.5905V22.0691C40.5905 24.2072 40.2286 25.8214 39.506 26.9107C38.7833 28.0012 37.6607 28.6964 36.1405 28.9952L23.5107 8.21548H18.1702L25.569 20.4655C23.2321 20.8929 21.4523 22.0691 20.2285 23.9929C19.0047 25.9167 18.3928 28.3536 18.3928 31.3048V46.6976H23.5666V31.2405C23.5666 27.1786 24.994 24.8274 27.85 24.1857L41.4798 46.6976H46.8762V46.6964Z" fill="#0F2350"/>
<path d="M36.9179 46.6964L13.5536 8.21548H8.21313L15.6119 20.4655C13.275 20.8929 11.4953 22.0691 10.2715 23.9929C9.04766 25.9167 8.43575 28.3536 8.43575 31.3048V46.6976H13.6096V31.2405C13.6096 27.1786 15.0369 24.8274 17.8929 24.1857L31.5227 46.6976H36.9179V46.6964Z" fill="#CE2C15"/>
<path d="M54.0476 0.952381V54.0476H0.952381V0.952381H54.0476ZM55 0H0V55H55V0Z" fill="#0F2350"/>
</svg>
