<svg width="55" height="55" viewBox="0 0 55 55" fill="none" xmlns="http://www.w3.org/2000/svg">
<rect x="0.5" y="0.5" width="54" height="54" stroke="white" stroke-opacity="0.5"/>
<path d="M27.5172 15.8987C27.2202 15.8965 26.978 16.1356 26.9758 16.432C26.9737 16.7285 27.2122 16.9708 27.5092 16.9729C27.8057 16.9751 28.0479 16.7366 28.05 16.4401C28.0522 16.1436 27.8137 15.9014 27.5172 15.8987Z" fill="#ECECEC"/>
<path d="M27.4929 19.1212C25.419 19.1065 23.7206 20.7795 23.7049 22.8527C23.6893 24.9258 25.3633 26.625 27.4365 26.6406C27.4461 26.6407 27.4556 26.6407 27.4652 26.6407C29.5252 26.6407 31.2088 24.9727 31.2244 22.9091C31.24 20.8361 29.5661 19.1368 27.4929 19.1212ZM27.4651 25.5666C27.4584 25.5666 27.4513 25.5665 27.4445 25.5665C25.9636 25.5553 24.7679 24.3415 24.7791 22.8608C24.7902 21.3867 25.9927 20.1952 27.4642 20.1952C27.4709 20.1952 27.478 20.1953 27.4848 20.1954C28.9657 20.2065 30.1614 21.4203 30.1502 22.9011C30.139 24.3752 28.9366 25.5666 27.4651 25.5666Z" fill="#ECECEC"/>
<path d="M29.808 16.3059C29.5286 16.2068 29.2215 16.3531 29.1223 16.6328C29.0232 16.9124 29.1696 17.2193 29.4491 17.3185C31.815 18.157 33.3916 20.4102 33.3727 22.9253C33.3705 23.2219 33.6092 23.4642 33.9058 23.4665C33.9072 23.4665 33.9086 23.4665 33.91 23.4665C34.2046 23.4665 34.4447 23.2286 34.447 22.9334C34.4693 19.9606 32.605 17.2973 29.808 16.3059Z" fill="#ECECEC"/>
<path d="M30.7601 33.9691C34.3326 29.3706 36.5652 26.9727 36.5953 22.9495C36.6332 17.8876 32.5252 13.75 27.4637 13.75C22.4613 13.75 18.3718 17.8013 18.3338 22.8126C18.3031 26.9448 20.5772 29.3395 24.1743 33.9683C20.5958 34.5031 18.3338 35.8468 18.3338 37.4903C18.3338 38.5912 19.3514 39.5791 21.1992 40.272C22.8811 40.9027 25.1062 41.25 27.4646 41.25C29.823 41.25 32.0481 40.9027 33.7299 40.272C35.5777 39.5791 36.5953 38.5911 36.5953 37.4902C36.5953 35.8476 34.3354 34.5043 30.7601 33.9691ZM19.408 22.8207C19.4415 18.3987 23.0495 14.8242 27.4638 14.8242C31.9304 14.8242 35.5545 18.4759 35.5212 22.9415C35.4926 26.7622 33.1249 29.1167 29.3449 34.0443C28.6707 34.9228 28.0515 35.7534 27.4654 36.5659C26.881 35.7529 26.2742 34.9372 25.5898 34.044C21.6536 28.9101 19.3789 26.7335 19.408 22.8207ZM27.4646 40.1758C22.8534 40.1758 19.408 38.758 19.408 37.4903C19.408 36.5501 21.4677 35.3625 24.9309 34.9512C25.6964 35.9556 26.3676 36.8682 27.0259 37.8002C27.1264 37.9425 27.2898 38.0273 27.4641 38.0274C27.4643 38.0274 27.4644 38.0274 27.4646 38.0274C27.6387 38.0274 27.802 37.943 27.9027 37.8009C28.5548 36.881 29.2443 35.946 30.0033 34.9518C33.4633 35.3635 35.5212 36.5508 35.5212 37.4903C35.5211 38.758 32.0757 40.1758 27.4646 40.1758Z" fill="#ECECEC"/>
</svg>
