<svg width="48" height="48" viewBox="0 0 48 48" fill="none" xmlns="http://www.w3.org/2000/svg">
<rect x="0.5" y="0.5" width="47" height="47" stroke="#CE2C15"/>
<path d="M29.929 13.8677H22.7849C22.5776 13.8677 22.4097 14.0357 22.4097 14.2429C22.4097 14.4502 22.5776 14.6182 22.7849 14.6182H29.929C30.1363 14.6182 30.3043 14.4502 30.3043 14.2429C30.3043 14.0357 30.1363 13.8677 29.929 13.8677Z" fill="#CE2C15"/>
<path d="M29.929 15.6189H22.7849C22.5776 15.6189 22.4097 15.7869 22.4097 15.9942C22.4097 16.2014 22.5776 16.3694 22.7849 16.3694H29.929C30.1363 16.3694 30.3043 16.2014 30.3043 15.9942C30.3043 15.7869 30.1363 15.6189 29.929 15.6189Z" fill="#CE2C15"/>
<path d="M34.3622 17.7633H34.3124V16.8646C34.3124 16.2664 33.8257 15.7797 33.2275 15.7797H32.8707V15.1201C32.8707 14.9129 32.7028 14.7449 32.4955 14.7449C32.2882 14.7449 32.1202 14.9129 32.1202 15.1201V17.7633H20.5935V12.0486C20.5935 11.8842 20.7272 11.7505 20.8915 11.7505H31.8222C31.9866 11.7505 32.1203 11.8842 32.1203 12.0486V13.3658C32.1203 13.573 32.2882 13.7411 32.4955 13.7411C32.7028 13.7411 32.8708 13.573 32.8708 13.3658V12.0486C32.8707 11.4703 32.4004 11 31.8222 11H20.8915C20.3133 11 19.843 11.4703 19.843 12.0486V15.7798H19.4862C19.0577 15.7798 18.6865 16.0295 18.5103 16.3912C18.1711 16.088 17.7239 15.9034 17.2343 15.9034H14.6908C13.6528 15.9034 12.8054 16.7326 12.7748 17.7633H12.6377C11.7347 17.7633 11 18.498 11 19.401V32.5694C11 33.4724 11.7347 34.2071 12.6377 34.2071H12.7748C12.8054 35.2377 13.6528 36.0669 14.6908 36.0669H17.2342C18.2722 36.0669 19.1197 35.2377 19.1503 34.207H34.3623C35.2653 34.207 36 33.4723 36 32.5693V19.4009C36 18.4979 35.2653 17.7633 34.3622 17.7633ZM32.8707 16.5302H33.2275C33.4118 16.5302 33.5618 16.6803 33.5618 16.8646V17.7633H32.8707V16.5302H32.8707ZM19.4862 16.5302H19.8429V17.7633H19.1517V16.8646C19.1518 16.6802 19.3018 16.5302 19.4862 16.5302ZM11.7505 32.5693V19.4009C11.7505 18.9117 12.1485 18.5138 12.6377 18.5138H12.7733V19.2366C12.7733 20.9899 13.0137 22.1082 13.1371 23.1575V28.8005C12.6636 31.1461 12.7961 32.8107 12.7733 33.4564H12.6377C12.1485 33.4565 11.7505 33.0585 11.7505 32.5693ZM18.4013 34.1494C18.4013 34.7929 17.8777 35.3164 17.2342 35.3164H14.6908C14.0473 35.3164 13.5238 34.7929 13.5238 34.1494C13.5587 32.9628 13.3884 31.3232 13.8801 28.9132C13.8851 28.8885 13.8876 28.8634 13.8876 28.8382V23.132C13.8876 23.1152 13.8865 23.0982 13.8842 23.0815C13.7615 22.0426 13.5238 20.933 13.5238 19.2366V17.8208C13.5238 17.1773 14.0473 16.6538 14.6908 16.6538H17.2342C17.8777 16.6538 18.4013 17.1773 18.4013 17.8208V18.1385V19.2367C18.4013 20.9265 18.1682 22.003 18.0409 23.0815C18.0386 23.0983 18.0374 23.1152 18.0374 23.1321V28.8382C18.0374 28.8633 18.04 28.8885 18.045 28.9132C18.5363 31.3216 18.3661 32.9528 18.4013 34.1494ZM35.2495 32.5693C35.2495 33.0585 34.8514 33.4565 34.3622 33.4565H19.1518C19.1301 32.8424 19.2619 31.1489 18.788 28.8005V23.1575C18.912 22.1027 19.1518 20.9956 19.1518 19.2366V18.5138H34.3623C34.8515 18.5138 35.2495 18.9117 35.2495 19.4009V32.5693H35.2495Z" fill="#CE2C15"/>
<path d="M31.4011 20.1907H21.3128C20.8315 20.1907 20.4399 20.5822 20.4399 21.0635V23.4175C20.4399 23.8987 20.8315 24.2903 21.3128 24.2903H23.067C23.2743 24.2903 23.4423 24.1223 23.4423 23.915C23.4423 23.7078 23.2743 23.5398 23.067 23.5398H21.3128C21.2453 23.5398 21.1904 23.4849 21.1904 23.4175V21.0635C21.1904 20.996 21.2453 20.9412 21.3128 20.9412H31.4011C31.4685 20.9412 31.5234 20.9961 31.5234 21.0635V23.4175C31.5234 23.4849 31.4685 23.5398 31.4011 23.5398H24.8214C24.6141 23.5398 24.4461 23.7078 24.4461 23.915C24.4461 24.1223 24.6141 24.2903 24.8214 24.2903H31.4011C31.8824 24.2903 32.2739 23.8988 32.2739 23.4175V21.0635C32.2739 20.5822 31.8824 20.1907 31.4011 20.1907Z" fill="#CE2C15"/>
<path d="M22.1573 25.5107H21.1697C20.7673 25.5107 20.4399 25.8381 20.4399 26.2405V27.1908C20.4399 27.5932 20.7673 27.9205 21.1697 27.9205H22.1573C22.5597 27.9205 22.887 27.5932 22.887 27.1908V26.2405C22.887 25.8381 22.5596 25.5107 22.1573 25.5107ZM22.1365 27.17H21.1905V26.2612H22.1365V27.17Z" fill="#CE2C15"/>
<path d="M25.2862 25.5107H24.2986C23.8962 25.5107 23.5688 25.8381 23.5688 26.2405V27.1908C23.5688 27.5932 23.8962 27.9205 24.2986 27.9205H25.2862C25.6886 27.9205 26.0159 27.5932 26.0159 27.1908V26.2405C26.0159 25.8381 25.6886 25.5107 25.2862 25.5107ZM25.2654 27.17H24.3194V26.2612H25.2654V27.17Z" fill="#CE2C15"/>
<path d="M28.4151 25.5107H27.4275C27.0251 25.5107 26.6978 25.8381 26.6978 26.2405V27.1908C26.6978 27.5932 27.0251 27.9205 27.4275 27.9205H28.4151C28.8175 27.9205 29.1448 27.5932 29.1448 27.1908V26.2405C29.1448 25.8381 28.8175 25.5107 28.4151 25.5107ZM28.3943 27.17H27.4483V26.2612H28.3943V27.17Z" fill="#CE2C15"/>
<path d="M31.5439 25.5107H30.5563C30.154 25.5107 29.8267 25.8381 29.8267 26.2405V27.1908C29.8267 27.5932 30.154 27.9205 30.5563 27.9205H31.5439C31.9463 27.9205 32.2737 27.5932 32.2737 27.1908V26.2405C32.2737 25.8381 31.9463 25.5107 31.5439 25.5107ZM31.5232 27.17H30.5772V26.2612H31.5232V27.17Z" fill="#CE2C15"/>
<path d="M22.1573 29.0791H21.1697C20.7673 29.0791 20.4399 29.4064 20.4399 29.8088V30.7592C20.4399 31.1616 20.7673 31.4889 21.1697 31.4889H22.1573C22.5597 31.4889 22.887 31.1616 22.887 30.7592V29.8088C22.887 29.4065 22.5596 29.0791 22.1573 29.0791ZM22.1365 30.7384H21.1905V29.8296H22.1365V30.7384Z" fill="#CE2C15"/>
<path d="M25.2862 29.0791H24.2986C23.8962 29.0791 23.5688 29.4064 23.5688 29.8088V30.7592C23.5688 31.1616 23.8962 31.4889 24.2986 31.4889H25.2862C25.6886 31.4889 26.0159 31.1616 26.0159 30.7592V29.8088C26.0159 29.4065 25.6886 29.0791 25.2862 29.0791ZM25.2654 30.7384H24.3194V29.8296H25.2654V30.7384Z" fill="#CE2C15"/>
<path d="M28.4151 29.0791H27.4275C27.0251 29.0791 26.6978 29.4064 26.6978 29.8088V30.7592C26.6978 31.1616 27.0251 31.4889 27.4275 31.4889H28.4151C28.8175 31.4889 29.1448 31.1616 29.1448 30.7592V29.8088C29.1448 29.4065 28.8175 29.0791 28.4151 29.0791ZM28.3943 30.7384H27.4483V29.8296H28.3943V30.7384Z" fill="#CE2C15"/>
<path d="M31.5439 29.0791H30.5563C30.154 29.0791 29.8267 29.4064 29.8267 29.8088V30.7592C29.8267 31.1616 30.154 31.4889 30.5563 31.4889H31.5439C31.9463 31.4889 32.2737 31.1616 32.2737 30.7592V29.8088C32.2737 29.4065 31.9463 29.0791 31.5439 29.0791ZM31.5232 30.7384H30.5772V29.8296H31.5232V30.7384Z" fill="#CE2C15"/>
</svg>
