<svg width="55" height="55" viewBox="0 0 55 55" fill="none" xmlns="http://www.w3.org/2000/svg">
<rect x="0.5" y="0.5" width="54" height="54" stroke="white" stroke-opacity="0.5"/>
<path d="M31.3554 36.9941L27.4084 33.2103C26.4751 32.3154 25.0526 32.219 24.0266 32.9817C24.0263 32.9818 24.0215 32.9851 24.0213 32.9855L24.0038 32.9986C23.9828 33.0144 23.9632 33.0146 23.9499 33.0124C23.9267 33.008 23.9172 32.9932 23.9139 32.9875C23.0021 31.5399 22.3855 29.9488 22.0807 28.2582C21.7763 26.5673 21.7991 24.8601 22.1493 23.1844C22.1504 23.1787 22.1537 23.1636 22.1718 23.1528C22.1865 23.1441 22.2027 23.1423 22.2205 23.1476L22.2477 23.1555C23.4785 23.5157 24.7824 22.9274 25.3473 21.7574L27.9306 16.4084C28.2946 15.6546 28.1386 14.7546 27.543 14.1669C27.3319 13.9532 27.0914 13.7521 26.8282 13.5689C24.4707 11.9315 21.253 12.4255 19.5028 14.6939C19.3941 14.8359 19.2931 14.9845 19.1958 15.1346L19.1947 15.1363C18.8445 15.6548 18.6706 15.9785 18.4081 16.4676L18.3522 16.5715C18.2891 16.688 16.8007 19.4436 16.4339 21.3836C15.8654 24.3929 15.9158 27.5048 16.5803 30.3826C17.2824 33.4224 18.6173 36.127 20.5474 38.4212C21.0372 39.0033 21.9446 38.2413 21.4542 37.6582C19.6457 35.509 18.3944 32.9712 17.7351 30.1159C17.1073 27.3965 17.0599 24.4532 17.5984 21.6036C17.9305 19.8464 19.3788 17.1638 19.3946 17.135L19.452 17.0281C19.681 16.6017 19.9218 16.1912 20.1859 15.7858L20.19 15.7793C20.2694 15.6537 20.3542 15.5319 20.4442 15.4136C21.8088 13.6491 24.3149 13.2663 26.1519 14.5421C26.3564 14.6841 26.5415 14.839 26.7022 15.002C26.7044 15.0044 26.7068 15.0068 26.7092 15.0092C26.945 15.2404 27.007 15.5957 26.8634 15.893L24.2803 21.242C23.9679 21.8884 23.253 22.2149 22.5812 22.0186L22.5588 22.0118C22.2251 21.9123 21.8629 21.957 21.5651 22.1347C21.2695 22.3109 21.0597 22.605 20.9894 22.942C20.6077 24.7674 20.5827 26.6267 20.9145 28.4685C21.2462 30.3094 21.9177 32.0421 22.911 33.619C23.095 33.9115 23.3953 34.1149 23.7351 34.1776C24.0779 34.2407 24.4352 34.1565 24.7171 33.9448L24.7333 33.9328C25.2936 33.5166 26.0737 33.5723 26.5882 34.0656L30.5352 37.8495C31.0167 38.3113 31.0259 39.0903 30.7103 39.6442C30.1565 40.6089 29.0087 41.2557 27.9398 41.437C26.8514 41.6214 25.7522 41.3764 24.845 40.7462C24.2201 40.3123 23.5432 41.2847 24.169 41.7194C25.0799 42.352 26.1414 42.6823 27.2292 42.6823C27.5309 42.6823 27.8349 42.6568 28.1377 42.6054C29.5568 42.3647 31.0079 41.5057 31.738 40.2343L31.7516 40.2105C32.331 39.2011 32.2135 37.8169 31.3554 36.9941Z" fill="#ECECEC"/>
<path d="M33.5006 17.9911C29.9851 17.9911 27.1254 20.8511 27.1254 24.3667C27.1254 24.6739 27.1477 24.9833 27.192 25.2888L26.1351 28.7223C26.0238 29.0833 26.2985 29.4687 26.6702 29.4882L29.9465 29.6598C30.999 30.3685 32.2241 30.7421 33.5006 30.7421C37.016 30.7421 39.8761 27.882 39.8761 24.3667C39.8761 20.8511 37.016 17.9911 33.5006 17.9911ZM33.5006 29.557C32.4131 29.557 31.3719 29.2242 30.4895 28.5946C30.3977 28.5291 30.289 28.4911 30.1766 28.4854L27.4911 28.3445L28.3648 25.5068C28.4675 25.1735 28.3106 24.7133 28.3106 24.3667C28.3106 21.5046 30.6387 19.1765 33.5006 19.1765C36.3625 19.1765 38.6908 21.5046 38.6908 24.3667C38.6908 27.2285 36.3625 29.557 33.5006 29.557V29.557Z" fill="#ECECEC"/>
<path d="M31.349 23.9413C31.0267 23.9413 30.7563 24.2117 30.7563 24.5337C30.7563 24.856 31.0269 25.1266 31.349 25.1266C31.6617 25.1266 31.9266 24.8715 31.9404 24.5597C31.9549 24.2279 31.6817 23.9413 31.349 23.9413Z" fill="#ECECEC"/>
<path d="M22.5753 39.2184C22.2531 39.2184 21.9827 39.489 21.9827 39.8109C21.9827 40.133 22.2532 40.4036 22.5753 40.4036C22.888 40.4036 23.1529 40.1488 23.1667 39.8368C23.1812 39.5056 22.9075 39.2184 22.5753 39.2184Z" fill="#ECECEC"/>
<path d="M33.6799 23.9413C33.3571 23.9413 33.0874 24.2109 33.0874 24.5337C33.0874 24.8564 33.3576 25.1266 33.6799 25.1266C33.993 25.1262 34.2571 24.8718 34.2707 24.5597C34.2853 24.2279 34.0132 23.9413 33.6799 23.9413Z" fill="#ECECEC"/>
<path d="M36.0102 23.9413C35.6881 23.9413 35.4177 24.2117 35.4177 24.5337C35.4179 24.856 35.6885 25.1266 36.0102 25.1266C36.3233 25.1266 36.5878 24.8715 36.6016 24.5597C36.6165 24.2279 36.3433 23.9413 36.0102 23.9413Z" fill="#ECECEC"/>
</svg>
