<svg width="40" height="40" viewBox="0 0 40 40" fill="none" xmlns="http://www.w3.org/2000/svg">
<path d="M39.5 0.5H0.5V39.5H39.5V0.5Z" stroke="#CE2C15"/>
<path d="M22.8038 26.9048L19.9333 24.1529C19.2545 23.5021 18.22 23.432 17.4738 23.9866C17.4735 23.9868 17.4701 23.9892 17.4699 23.9894L17.4572 23.9989C17.442 24.0104 17.4277 24.0106 17.418 24.009C17.4012 24.0058 17.3942 23.9951 17.3918 23.9909C16.7287 22.9381 16.2803 21.7809 16.0586 20.5514C15.8372 19.3216 15.8538 18.0801 16.1085 16.8614C16.1093 16.8572 16.1117 16.8462 16.1248 16.8384C16.1355 16.8321 16.1473 16.8307 16.1603 16.8346L16.1801 16.8404C17.0752 17.1023 18.0235 16.6745 18.4343 15.8235L20.3131 11.9334C20.5778 11.3851 20.4644 10.7306 20.0312 10.3032C19.8776 10.1477 19.7028 10.0015 19.5113 9.86823C17.7967 8.67737 15.4566 9.03669 14.1837 10.6864C14.1047 10.7897 14.0312 10.8978 13.9605 11.007L13.9597 11.0082C13.705 11.3853 13.5785 11.6207 13.3876 11.9764L13.347 12.052C13.3011 12.1367 12.2186 14.1408 11.9518 15.5517C11.5383 17.7403 11.575 20.0035 12.0583 22.0964C12.5689 24.3072 13.5397 26.2742 14.9435 27.9426C15.2997 28.366 15.9596 27.8118 15.603 27.3877C14.2877 25.8247 13.3776 23.979 12.8982 21.9024C12.4416 19.9247 12.4071 17.7841 12.7988 15.7117C13.0402 14.4337 14.0936 12.4828 14.1051 12.4618L14.1468 12.384C14.3134 12.074 14.4885 11.7754 14.6806 11.4805L14.6835 11.4758C14.7413 11.3845 14.803 11.2959 14.8684 11.2099C15.8609 9.92656 17.6834 9.64817 19.0194 10.5761C19.1682 10.6793 19.3028 10.792 19.4197 10.9105C19.4213 10.9122 19.423 10.914 19.4248 10.9157C19.5963 11.0839 19.6414 11.3423 19.5369 11.5585L17.6583 15.4487C17.4311 15.9188 16.9111 16.1562 16.4226 16.0135L16.4063 16.0085C16.1636 15.9362 15.9002 15.9687 15.6836 16.0979C15.4687 16.2261 15.316 16.44 15.2649 16.685C14.9873 18.0126 14.9691 19.3648 15.2105 20.7043C15.4517 22.0431 15.9401 23.3033 16.6625 24.4502C16.7962 24.6629 17.0147 24.8108 17.2618 24.8564C17.5111 24.9023 17.7709 24.8411 17.976 24.6871L17.9878 24.6784C18.3953 24.3757 18.9626 24.4162 19.3368 24.775L22.2073 27.5269C22.5575 27.8628 22.5642 28.4293 22.3347 28.8321C21.9319 29.5338 21.0971 30.0041 20.3197 30.136C19.5282 30.2701 18.7288 30.0919 18.069 29.6336C17.6145 29.318 17.1222 30.0252 17.5774 30.3414C18.2398 30.8014 19.0118 31.0417 19.803 31.0417C20.0224 31.0417 20.2435 31.0231 20.4637 30.9858C21.4958 30.8106 22.5511 30.1859 23.0821 29.2613L23.092 29.244C23.5134 28.5098 23.4279 27.5032 22.8038 26.9048Z" fill="#CE2C15"/>
<path d="M24.364 13.0844C21.8072 13.0844 19.7274 15.1644 19.7274 17.7212C19.7274 17.9446 19.7436 18.1696 19.7759 18.3918L19.0072 20.8889C18.9263 21.1515 19.126 21.4317 19.3964 21.4459L21.7792 21.5707C22.5446 22.0862 23.4356 22.3579 24.364 22.3579C26.9207 22.3579 29.0007 20.2778 29.0007 17.7212C29.0007 15.1644 26.9207 13.0844 24.364 13.0844ZM24.364 21.496C23.5731 21.496 22.8158 21.254 22.1741 20.796C22.1073 20.7484 22.0282 20.7207 21.9465 20.7166L19.9934 20.6141L20.6288 18.5504C20.7035 18.308 20.5894 17.9733 20.5894 17.7212C20.5894 15.6397 22.2825 13.9465 24.364 13.9465C26.4454 13.9465 28.1387 15.6397 28.1387 17.7212C28.1387 19.8025 26.4454 21.496 24.364 21.496Z" fill="#CE2C15"/>
<path d="M22.7992 17.4118C22.5648 17.4118 22.3682 17.6085 22.3682 17.8427C22.3682 18.0771 22.5649 18.2739 22.7992 18.2739C23.0266 18.2739 23.2192 18.0883 23.2293 17.8616C23.2398 17.6203 23.0412 17.4118 22.7992 17.4118Z" fill="#CE2C15"/>
<path d="M16.4183 28.5225C16.184 28.5225 15.9873 28.7193 15.9873 28.9534C15.9873 29.1876 16.1841 29.3844 16.4183 29.3844C16.6457 29.3844 16.8384 29.1991 16.8484 28.9722C16.859 28.7313 16.6599 28.5225 16.4183 28.5225Z" fill="#CE2C15"/>
<path d="M24.4943 17.4118C24.2595 17.4118 24.0634 17.6079 24.0634 17.8427C24.0634 18.0774 24.2599 18.2739 24.4943 18.2739C24.722 18.2736 24.9141 18.0886 24.924 17.8616C24.9345 17.6203 24.7367 17.4118 24.4943 17.4118Z" fill="#CE2C15"/>
<path d="M26.1892 17.4118C25.955 17.4118 25.7583 17.6085 25.7583 17.8427C25.7584 18.0771 25.9552 18.2739 26.1892 18.2739C26.4169 18.2739 26.6093 18.0883 26.6193 17.8616C26.6301 17.6203 26.4315 17.4118 26.1892 17.4118Z" fill="#CE2C15"/>
</svg>
