<svg width="55" height="55" viewBox="0 0 55 55" fill="none" xmlns="http://www.w3.org/2000/svg">
<rect x="0.5" y="0.5" width="54" height="54" stroke="white" stroke-opacity="0.5"/>
<path d="M34.2934 15.8899H26.1075C25.87 15.8899 25.6775 16.0824 25.6775 16.3199C25.6775 16.5574 25.87 16.7499 26.1075 16.7499H34.2934C34.5309 16.7499 34.7234 16.5574 34.7234 16.3199C34.7234 16.0824 34.5309 15.8899 34.2934 15.8899Z" fill="#ECECEC"/>
<path d="M34.2934 17.8965H26.1075C25.87 17.8965 25.6775 18.089 25.6775 18.3265C25.6775 18.5639 25.87 18.7565 26.1075 18.7565H34.2934C34.5309 18.7565 34.7234 18.5639 34.7234 18.3265C34.7234 18.089 34.5309 17.8965 34.2934 17.8965Z" fill="#ECECEC"/>
<path d="M39.3732 20.3538H39.3161V19.3241C39.3161 18.6387 38.7584 18.081 38.073 18.081H37.6642V17.3252C37.6642 17.0878 37.4718 16.8952 37.2342 16.8952C36.9967 16.8952 36.8042 17.0878 36.8042 17.3252V20.3538H23.5965V13.8057C23.5965 13.6174 23.7497 13.4642 23.938 13.4642H36.4628C36.6511 13.4642 36.8043 13.6174 36.8043 13.8057V15.315C36.8043 15.5525 36.9968 15.745 37.2343 15.745C37.4718 15.745 37.6643 15.5525 37.6643 15.315V13.8057C37.6642 13.1432 37.1252 12.6042 36.4628 12.6042H23.938C23.2755 12.6042 22.7366 13.1432 22.7366 13.8057V18.081H22.3278C21.8368 18.081 21.4114 18.3673 21.2095 18.7816C20.8208 18.4343 20.3085 18.2227 19.7474 18.2227H16.8331C15.6437 18.2227 14.6727 19.1728 14.6376 20.3539H14.4806C13.4458 20.3539 12.604 21.1957 12.604 22.2304V37.3191C12.604 38.3539 13.4458 39.1957 14.4806 39.1957H14.6376C14.6727 40.3766 15.6437 41.3268 16.8331 41.3268H19.7474C20.9368 41.3268 21.9078 40.3766 21.9429 39.1956H39.3733C40.408 39.1956 41.2498 38.3538 41.2498 37.319V22.2303C41.2498 21.1956 40.408 20.3538 39.3732 20.3538ZM37.6642 18.941H38.073C38.2842 18.941 38.4561 19.1129 38.4561 19.3241V20.3538H37.6642V18.941H37.6642ZM22.3278 18.941H22.7365V20.3538H21.9445V19.3241C21.9446 19.1128 22.1165 18.941 22.3278 18.941ZM13.4639 37.319V22.2303C13.4639 21.6698 13.92 21.2138 14.4806 21.2138H14.6359V22.0421C14.6359 24.051 14.9114 25.3324 15.0528 26.5347V33.0006C14.5102 35.6883 14.662 37.5957 14.6359 38.3356H14.4806C13.92 38.3356 13.4639 37.8796 13.4639 37.319ZM21.0846 39.1296C21.0846 39.867 20.4847 40.4668 19.7474 40.4668H16.8331C16.0957 40.4668 15.4959 39.867 15.4959 39.1296C15.5358 37.77 15.3407 35.8913 15.9041 33.1298C15.9098 33.1015 15.9128 33.0727 15.9128 33.0439V26.5056C15.9128 26.4862 15.9115 26.4668 15.9088 26.4476C15.7682 25.2572 15.4959 23.9858 15.4959 22.0421V20.4198C15.4959 19.6824 16.0958 19.0826 16.8331 19.0826H19.7474C20.4847 19.0826 21.0846 19.6824 21.0846 20.4198V20.7838V22.0421C21.0846 23.9783 20.8176 25.2118 20.6717 26.4477C20.669 26.4668 20.6677 26.4863 20.6677 26.5056V33.0438C20.6677 33.0726 20.6707 33.1015 20.6764 33.1297C21.2394 35.8895 21.0443 37.7584 21.0846 39.1296ZM40.3898 37.319C40.3898 37.8796 39.9338 38.3356 39.3732 38.3356H21.9446C21.9197 37.6321 22.0708 35.6915 21.5277 33.0007V26.5347C21.6698 25.3261 21.9446 24.0575 21.9446 22.0421V21.2138H39.3733C39.9338 21.2138 40.3899 21.6698 40.3899 22.2303V37.319H40.3898Z" fill="#ECECEC"/>
<path d="M35.9801 23.135H24.4205C23.8691 23.135 23.4204 23.5836 23.4204 24.1351V26.8324C23.4204 27.3838 23.8691 27.8325 24.4205 27.8325H26.4306C26.6681 27.8325 26.8606 27.64 26.8606 27.4025C26.8606 27.165 26.6681 26.9725 26.4306 26.9725H24.4205C24.3432 26.9725 24.2803 26.9096 24.2803 26.8324V24.1351C24.2803 24.0578 24.3432 23.995 24.4205 23.995H35.9801C36.0573 23.995 36.1202 24.0579 36.1202 24.1351V26.8324C36.1202 26.9097 36.0573 26.9725 35.9801 26.9725H28.4408C28.2033 26.9725 28.0109 27.165 28.0109 27.4025C28.0109 27.64 28.2033 27.8325 28.4408 27.8325H35.9801C36.5315 27.8325 36.9801 27.3839 36.9801 26.8324V24.1351C36.9802 23.5837 36.5316 23.135 35.9801 23.135Z" fill="#ECECEC"/>
<path d="M25.3882 29.231H24.2566C23.7955 29.231 23.4204 29.606 23.4204 30.0671V31.156C23.4204 31.6171 23.7955 31.9922 24.2566 31.9922H25.3882C25.8493 31.9922 26.2243 31.6171 26.2243 31.156V30.0671C26.2243 29.606 25.8492 29.231 25.3882 29.231ZM25.3643 31.1322H24.2804V30.0909H25.3643V31.1322Z" fill="#ECECEC"/>
<path d="M28.9736 29.231H27.842C27.3809 29.231 27.0059 29.606 27.0059 30.0671V31.156C27.0059 31.6171 27.381 31.9922 27.842 31.9922H28.9736C29.4347 31.9922 29.8098 31.6171 29.8098 31.156V30.0671C29.8098 29.606 29.4347 29.231 28.9736 29.231ZM28.9498 31.1322H27.8659V30.0909H28.9498V31.1322Z" fill="#ECECEC"/>
<path d="M32.5588 29.231H31.4272C30.9661 29.231 30.5911 29.606 30.5911 30.0671V31.156C30.5911 31.6171 30.9662 31.9922 31.4272 31.9922H32.5588C33.0199 31.9922 33.395 31.6171 33.395 31.156V30.0671C33.395 29.606 33.0199 29.231 32.5588 29.231ZM32.5351 31.1322H31.4511V30.0909H32.5351V31.1322Z" fill="#ECECEC"/>
<path d="M36.144 29.231H35.0124C34.5513 29.231 34.1763 29.606 34.1763 30.0671V31.156C34.1763 31.6171 34.5513 31.9922 35.0124 31.9922H36.144C36.6051 31.9922 36.9801 31.6171 36.9801 31.156V30.0671C36.9802 29.606 36.6051 29.231 36.144 29.231ZM36.1202 31.1322H35.0363V30.0909H36.1202V31.1322Z" fill="#ECECEC"/>
<path d="M25.3882 33.3198H24.2566C23.7955 33.3198 23.4204 33.6949 23.4204 34.156V35.2449C23.4204 35.706 23.7955 36.0811 24.2566 36.0811H25.3882C25.8493 36.0811 26.2243 35.706 26.2243 35.2449V34.156C26.2243 33.695 25.8492 33.3198 25.3882 33.3198ZM25.3643 35.2211H24.2804V34.1798H25.3643V35.2211Z" fill="#ECECEC"/>
<path d="M28.9736 33.3198H27.842C27.3809 33.3198 27.0059 33.6949 27.0059 34.156V35.2449C27.0059 35.706 27.381 36.0811 27.842 36.0811H28.9736C29.4347 36.0811 29.8098 35.706 29.8098 35.2449V34.156C29.8098 33.695 29.4347 33.3198 28.9736 33.3198ZM28.9498 35.2211H27.8659V34.1798H28.9498V35.2211Z" fill="#ECECEC"/>
<path d="M32.5588 33.3198H31.4272C30.9661 33.3198 30.5911 33.6949 30.5911 34.156V35.2449C30.5911 35.706 30.9662 36.0811 31.4272 36.0811H32.5588C33.0199 36.0811 33.395 35.706 33.395 35.2449V34.156C33.395 33.695 33.0199 33.3198 32.5588 33.3198ZM32.5351 35.2211H31.4511V34.1798H32.5351V35.2211Z" fill="#ECECEC"/>
<path d="M36.144 33.3198H35.0124C34.5513 33.3198 34.1763 33.6949 34.1763 34.156V35.2449C34.1763 35.706 34.5513 36.0811 35.0124 36.0811H36.144C36.6051 36.0811 36.9801 35.706 36.9801 35.2449V34.156C36.9802 33.695 36.6051 33.3198 36.144 33.3198ZM36.1202 35.2211H35.0363V34.1798H36.1202V35.2211Z" fill="#ECECEC"/>
</svg>
