<svg width="55" height="55" viewBox="0 0 55 55" fill="none" xmlns="http://www.w3.org/2000/svg">
<rect x="0.5" y="0.5" width="54" height="54" stroke="white" stroke-opacity="0.5"/>
<path d="M41.0461 25.4606L41.0462 25.4605L37.5347 23.1325V15.3512C37.5347 15.0997 37.3307 14.8958 37.0792 14.8958H17.9202C17.6686 14.8958 17.4647 15.0997 17.4647 15.3512V23.1331L13.9538 25.4605L13.9539 25.4606C13.8311 25.5422 13.75 25.6816 13.75 25.8401V39.9448C13.75 40.1963 13.9539 40.4002 14.2055 40.4002H40.7945C41.0461 40.4002 41.25 40.1963 41.25 39.9448V25.8401C41.25 25.6816 41.1689 25.5422 41.0461 25.4606ZM17.4647 27.0534L16.0361 26.2956H17.4647V27.0534ZM14.6609 26.5973L25.135 32.1533L14.6609 39.0961V26.5973ZM27.4998 31.6784L39.2833 39.4893H15.7164L27.4998 31.6784ZM29.8649 32.1533L40.339 26.5973V39.0963L29.8649 32.1533ZM37.5347 26.2956H38.964L37.5347 27.0537V26.2956ZM39.2833 25.3847H37.5347V24.2254L39.2833 25.3847ZM36.6238 15.8067V27.5369L29.0008 31.5805L27.7514 30.7524C27.5989 30.6513 27.4006 30.6513 27.2482 30.7524L25.999 31.5804L18.3756 27.5366V15.8067H36.6238ZM17.4647 25.3847H15.7169L17.4647 24.226V25.3847Z" fill="#ECECEC"/>
<path d="M27.4997 26.8741H31.1285C31.38 26.8741 31.5839 26.6702 31.5839 26.4187C31.5839 26.1671 31.38 25.9632 31.1285 25.9632H27.4997C25.75 25.9632 24.3264 24.5397 24.3264 22.7899V22.6555C24.3264 20.9058 25.75 19.4823 27.4997 19.4823C29.2495 19.4823 30.673 20.9058 30.673 22.6555V22.9915C30.673 23.3703 30.3649 23.6785 29.986 23.6785C29.6072 23.6785 29.2991 23.3704 29.2991 22.9915V22.3532C29.2991 21.2683 28.4165 20.3857 27.3317 20.3857C26.2468 20.3857 25.3643 21.2683 25.3643 22.3532C25.3643 23.438 26.2468 24.3206 27.3317 24.3206C27.8278 24.3206 28.2812 24.1357 28.6276 23.8316C28.9096 24.286 29.413 24.5894 29.986 24.5894C30.8671 24.5894 31.5839 23.8726 31.5839 22.9915V22.6555C31.5839 20.4034 29.7518 18.5713 27.4997 18.5713C25.2477 18.5713 23.4155 20.4034 23.4155 22.6555V22.7899C23.4155 25.042 25.2477 26.8741 27.4997 26.8741ZM27.3317 23.4097C26.7491 23.4097 26.2752 22.9357 26.2752 22.3532C26.2752 21.7706 26.7492 21.2966 27.3317 21.2966C27.9142 21.2966 28.3882 21.7706 28.3882 22.3532C28.3882 22.9357 27.9143 23.4097 27.3317 23.4097Z" fill="#ECECEC"/>
</svg>
