<svg width="15" height="13" viewBox="0 0 15 13" fill="none" xmlns="http://www.w3.org/2000/svg">
<path d="M14.3644 2.31402C14.4056 2.2567 14.3447 2.18268 14.2788 2.20818C13.8105 2.3894 13.3211 2.51166 12.8219 2.57192C13.3777 2.24038 13.8067 1.73569 14.0445 1.13818C14.0688 1.07731 14.0022 1.02296 13.9448 1.05462C13.4281 1.33947 12.8709 1.54458 12.2922 1.66271C12.2679 1.66766 12.243 1.65942 12.2259 1.6415C11.7916 1.18395 11.2199 0.879298 10.5966 0.774022C9.96019 0.666534 9.30607 0.772962 8.7368 1.07661C8.16753 1.38027 7.71532 1.86397 7.45108 2.45185C7.19983 3.01082 7.13204 3.63392 7.25596 4.23233C7.26557 4.27876 7.22917 4.32259 7.18177 4.31965C6.05564 4.24983 4.95536 3.95079 3.94869 3.44055C2.94459 2.93161 2.05543 2.22359 1.33536 1.36016C1.3034 1.32184 1.24284 1.3268 1.21955 1.37092C0.995493 1.79539 0.87818 2.26851 0.878499 2.74936C0.877589 3.228 0.995243 3.69944 1.22099 4.1217C1.44673 4.54396 1.77355 4.90394 2.17236 5.16959C1.74942 5.15811 1.33473 5.05372 0.957587 4.86446C0.908984 4.84006 0.850684 4.87479 0.853212 4.92904C0.882621 5.56018 1.1147 6.19379 1.51641 6.67991C1.9439 7.19723 2.53724 7.55125 3.19608 7.6821C2.94247 7.75916 2.67916 7.79978 2.41407 7.80276C2.2698 7.80108 2.12581 7.79045 1.98293 7.77095C1.92995 7.76372 1.8867 7.81395 1.90524 7.86402C2.10175 8.39455 2.44891 8.85748 2.90537 9.1954C3.39338 9.55667 3.98205 9.75708 4.58947 9.76876C3.56377 10.5745 2.2974 11.0143 0.992245 11.0179C0.858136 11.0184 0.724086 11.014 0.590352 11.0049C0.514989 10.9998 0.480329 11.1 0.545289 11.1385C1.81695 11.8919 3.27043 12.2902 4.75298 12.2884C5.84757 12.2997 6.93346 12.0932 7.94721 11.6809C8.96096 11.2686 9.88225 10.6587 10.6573 9.88693C11.4323 9.11516 12.0455 8.19695 12.4611 7.18592C12.8767 6.1749 13.0864 5.09133 13.0778 3.99851V3.65795C13.0778 3.63555 13.0884 3.61447 13.1063 3.60097C13.5885 3.23748 14.0126 2.80351 14.3644 2.31402Z" fill="#1DADEA"/>
</svg>
