<svg width="25" height="25" viewBox="0 0 25 25" fill="none" xmlns="http://www.w3.org/2000/svg">
<rect width="25" height="25" rx="12.5" fill="#1DADEA"/>
<path d="M18.7379 8.7166C18.775 8.66493 18.7202 8.5982 18.6608 8.62119C18.2386 8.78455 17.7975 8.89477 17.3474 8.94908C17.8485 8.65022 18.2352 8.19527 18.4496 7.65665C18.4714 7.60178 18.4114 7.55278 18.3597 7.58133C17.8939 7.8381 17.3917 8.023 16.8699 8.12949C16.8481 8.13394 16.8256 8.12652 16.8102 8.11037C16.4187 7.69791 15.9033 7.42328 15.3415 7.32838C14.7678 7.23149 14.1781 7.32743 13.665 7.60115C13.1518 7.87488 12.7442 8.31091 12.506 8.84085C12.2795 9.34473 12.2184 9.90641 12.3301 10.4458C12.3388 10.4877 12.3059 10.5272 12.2632 10.5246C11.2481 10.4616 10.2562 10.1921 9.34878 9.7321C8.44364 9.27333 7.64211 8.63509 6.99302 7.85676C6.96421 7.82221 6.90961 7.82668 6.88862 7.86645C6.68664 8.24909 6.58089 8.67557 6.58118 9.10903C6.58036 9.5405 6.68642 9.96547 6.88991 10.3461C7.09341 10.7268 7.38802 11.0513 7.74752 11.2907C7.36627 11.2804 6.99244 11.1863 6.65247 11.0157C6.60866 10.9937 6.55611 11.025 6.55839 11.0739C6.5849 11.6428 6.7941 12.214 7.15622 12.6522C7.54158 13.1185 8.07644 13.4377 8.67035 13.5556C8.44173 13.6251 8.20437 13.6617 7.96541 13.6644C7.83536 13.6629 7.70556 13.6533 7.57676 13.6357C7.52901 13.6292 7.49001 13.6745 7.50673 13.7196C7.68387 14.1978 7.99681 14.6151 8.40829 14.9198C8.8482 15.2454 9.37885 15.4261 9.92641 15.4366C9.00179 16.163 7.86024 16.5594 6.68372 16.5627C6.56282 16.5631 6.44199 16.5591 6.32143 16.5509C6.2535 16.5463 6.22225 16.6367 6.28081 16.6714C7.42714 17.3505 8.73737 17.7095 10.0738 17.7079C11.0605 17.7181 12.0394 17.532 12.9532 17.1603C13.867 16.7886 14.6975 16.2388 15.3962 15.5431C16.0948 14.8474 16.6476 14.0197 17.0222 13.1083C17.3969 12.197 17.5859 11.2202 17.5781 10.2351V9.92808C17.5781 9.90788 17.5877 9.88888 17.6039 9.87671C18.0385 9.54905 18.4208 9.15785 18.7379 8.7166Z" fill="white"/>
</svg>
